<svg width="64" height="64" fill="currentColor" viewBox="0 0 24 24" xmlns="http://www.w3.org/2000/svg">
  <path fill-rule="evenodd" d="M16 2a2 2 0 1 1 0 4 2 2 0 0 1 0-4z" clip-rule="evenodd"></path>
  <path fill-rule="evenodd" d="M16 10a2 2 0 1 1 0 4 2 2 0 0 1 0-4z" clip-rule="evenodd"></path>
  <path fill-rule="evenodd" d="M8 18a2 2 0 1 1 0 4 2 2 0 0 1 0-4z" clip-rule="evenodd"></path>
  <path fill-rule="evenodd" d="M16 18a2 2 0 1 1 0 4 2 2 0 0 1 0-4z" clip-rule="evenodd"></path>
  <path fill-rule="evenodd" d="M8 2a2 2 0 1 1 0 4 2 2 0 0 1 0-4z" clip-rule="evenodd"></path>
  <path fill-rule="evenodd" d="M8 10a2 2 0 1 1 0 4 2 2 0 0 1 0-4z" clip-rule="evenodd"></path>
</svg>