<svg width="64" height="64" fill="currentColor" viewBox="0 0 24 24" xmlns="http://www.w3.org/2000/svg">
  <path fill-rule="evenodd" d="M22 8a2 2 0 1 1-4 0 2 2 0 0 1 4 0z" clip-rule="evenodd"></path>
  <path fill-rule="evenodd" d="M22 16a2 2 0 1 1-4 0 2 2 0 0 1 4 0z" clip-rule="evenodd"></path>
  <path fill-rule="evenodd" d="M14 16a2 2 0 1 1-4 0 2 2 0 0 1 4 0z" clip-rule="evenodd"></path>
  <path fill-rule="evenodd" d="M6 8a2 2 0 1 1-4 0 2 2 0 0 1 4 0z" clip-rule="evenodd"></path>
  <path fill-rule="evenodd" d="M6 16a2 2 0 1 1-4 0 2 2 0 0 1 4 0z" clip-rule="evenodd"></path>
  <path fill-rule="evenodd" d="M14 8a2 2 0 1 1-4 0 2 2 0 0 1 4 0z" clip-rule="evenodd"></path>
</svg>