<svg width="64" height="64" fill="currentColor" viewBox="0 0 24 24" xmlns="http://www.w3.org/2000/svg">
  <path fill-rule="evenodd" d="M9.066 1a2.2 2.2 0 1 0 .001 4.4h2.2V3.2a2.202 2.202 0 0 0-2.2-2.2zm0 5.867H3.2a2.2 2.2 0 0 0 0 4.4h5.866a2.2 2.2 0 1 0 0-4.4z" clip-rule="evenodd"></path>
  <path fill-rule="evenodd" d="M23 9.066a2.2 2.2 0 0 0-4.4 0v2.2h2.2a2.2 2.2 0 0 0 2.2-2.2zm-5.867 0V3.2a2.2 2.2 0 0 0-4.4 0v5.866a2.2 2.2 0 1 0 4.4 0z" clip-rule="evenodd"></path>
  <path fill-rule="evenodd" d="M14.933 23a2.2 2.2 0 1 0 0-4.4h-2.2v2.2a2.201 2.201 0 0 0 2.2 2.2zm0-5.868H20.8a2.2 2.2 0 0 0 0-4.4h-5.866a2.2 2.2 0 0 0-.001 4.4z" clip-rule="evenodd"></path>
  <path fill-rule="evenodd" d="M1 14.933a2.2 2.2 0 0 0 4.4 0v-2.2H3.2a2.2 2.2 0 0 0-2.2 2.2zm5.867 0v5.866a2.2 2.2 0 0 0 4.4.001v-5.866a2.2 2.2 0 0 0-4.4-.001z" clip-rule="evenodd"></path>
</svg>