<svg width="64" height="64" fill="none" stroke="currentColor" stroke-linecap="round" stroke-linejoin="round" stroke-width="2" viewBox="0 0 24 24" xmlns="http://www.w3.org/2000/svg">
  <path d="m16.926 19.381-4.302 1.414a2 2 0 0 1-1.248 0L7.074 19.38a4 4 0 0 1-2.623-2.794L3 11l9 1 9-1-1.451 5.587a4 4 0 0 1-2.623 2.794z"></path>
  <path d="M6.497 7.257A2 2 0 0 1 8.354 6h7.292a2 2 0 0 1 1.857 1.257L19 11l-7 1-7-1 1.497-3.743z"></path>
  <path d="M12 3v3"></path>
  <path d="M11 3h2"></path>
  <path d="M12 12v4"></path>
</svg>