<svg width="64" height="64" fill="none" stroke="currentColor" stroke-linecap="round" stroke-linejoin="round" stroke-width="2" viewBox="0 0 24 24" xmlns="http://www.w3.org/2000/svg">
  <path d="m16.719 19.752-.64-5.124A3 3 0 0 0 13.101 12h-2.204a3 3 0 0 0-2.976 2.628l-.641 5.124A2 2 0 0 0 9.266 22h5.468a2 2 0 0 0 1.985-2.248z"></path>
  <path d="M12 2a3 3 0 1 0 0 6 3 3 0 1 0 0-6z"></path>
  <path d="M4 7a2 2 0 1 0 0 4 2 2 0 1 0 0-4z"></path>
  <path d="M20 7a2 2 0 1 0 0 4 2 2 0 1 0 0-4z"></path>
  <path d="M4 14h-.306a2 2 0 0 0-1.973 1.671l-.333 2A2 2 0 0 0 3.361 20H7"></path>
  <path d="M20 14h.306a2 2 0 0 1 1.973 1.671l.333 2A2 2 0 0 1 20.639 20H17"></path>
</svg>