<svg width="64" height="64" fill="none" stroke="currentColor" stroke-linecap="round" stroke-linejoin="round" stroke-width="2" viewBox="0 0 24 24" xmlns="http://www.w3.org/2000/svg">
  <path d="M7 2a3 3 0 1 0 0 6 3 3 0 1 0 0-6z"></path>
  <path d="M10 12H5.898a3 3 0 0 0-2.976 2.628l-.641 5.124A2 2 0 0 0 4.266 22H9"></path>
  <path d="m21.719 19.752-.64-5.124A3 3 0 0 0 18.101 12h-2.204a3 3 0 0 0-2.976 2.628l-.641 5.124A2 2 0 0 0 14.266 22h5.468a2 2 0 0 0 1.985-2.248z"></path>
  <path d="M17 2a3 3 0 1 0 0 6 3 3 0 1 0 0-6z"></path>
</svg>