<svg width="64" height="64" fill="none" stroke="currentColor" stroke-linecap="round" stroke-width="2" viewBox="0 0 24 24" xmlns="http://www.w3.org/2000/svg">
  <path d="M15.748 18.46c.79 1.304 1.145 2.54 2.552 2.54 1.491 0 2.7-1.243 2.7-2.777s-1.209-2.778-2.7-2.778c-1.4 0-2.55 1.095-2.687 2.498a.845.845 0 0 0 .135.516Z"></path>
  <path d="M8.252 18.458C7.462 19.763 7.107 21 5.7 21 4.209 21 3 19.756 3 18.222s1.209-2.778 2.7-2.778c1.4 0 2.55 1.095 2.686 2.498a.85.85 0 0 1-.134.516Zm0 0 1.948-3.476"></path>
  <path d="M15.748 18.459 7.093 3.346a.66.66 0 0 0-1.1-.081c-1.704 2.19-1.534 5.35.395 7.333l9.36 7.86Z"></path>
  <path d="m11.951 11.829 4.953-8.494a.66.66 0 0 1 1.098-.076c1.707 2.194 1.537 5.358-.395 7.345L16.5 11.742"></path>
</svg>