<svg width="64" height="64" fill="none" stroke="currentColor" stroke-linecap="round" stroke-width="2" viewBox="0 0 24 24" xmlns="http://www.w3.org/2000/svg">
  <path d="M21 19H9"></path>
  <path d="M7 17a2 2 0 1 0 0 4 2 2 0 0 0 0-4Z"></path>
  <path d="M3 19h2"></path>
  <path d="M21 12h-2"></path>
  <path d="M17 10a2 2 0 1 0 0 4 2 2 0 0 0 0-4Z"></path>
  <path d="M3 12h12"></path>
  <path d="M21 5H11"></path>
  <path d="M9 3a2 2 0 1 0 0 4 2 2 0 0 0 0-4Z"></path>
  <path d="M3 5h4"></path>
</svg>