<svg width="64" height="64" fill="none" stroke="currentColor" stroke-linecap="round" stroke-width="2" viewBox="0 0 24 24" xmlns="http://www.w3.org/2000/svg">
  <path d="M5 21V9"></path>
  <path d="M7 7a2 2 0 1 0-4 0 2 2 0 0 0 4 0Z"></path>
  <path d="M5 3v2"></path>
  <path d="M12 21v-2"></path>
  <path d="M14 17a2 2 0 1 0-4 0 2 2 0 0 0 4 0Z"></path>
  <path d="M12 3v12"></path>
  <path d="M19 21V11"></path>
  <path d="M21 9a2 2 0 1 0-4 0 2 2 0 0 0 4 0Z"></path>
  <path d="M19 3v4"></path>
</svg>