<svg width="64" height="64" fill="none" stroke="currentColor" stroke-linecap="round" stroke-width="2" viewBox="0 0 24 24" xmlns="http://www.w3.org/2000/svg">
  <path d="M11.029 2.54a2 2 0 0 1 1.942 0l7.515 4.174a1 1 0 0 1 .514.874v8.235a2 2 0 0 1-1.029 1.748l-7 3.89a2 2 0 0 1-1.942 0l-7-3.89A2 2 0 0 1 3 15.824V7.588a1 1 0 0 1 .514-.874l7.515-4.174Z"></path>
  <path d="m7.5 4.5 9 5"></path>
  <path d="M6 12.328 9 14"></path>
  <path d="m4 7.5 8 4.5"></path>
  <path d="m12 12 8-4.5"></path>
  <path d="M12 12v9"></path>
  <path d="M16.5 9.5V13"></path>
</svg>