<svg width="64" height="64" fill="none" stroke="currentColor" stroke-linecap="round" stroke-linejoin="round" stroke-width="2" viewBox="0 0 24 24" xmlns="http://www.w3.org/2000/svg">
  <path d="m7 21 6-8 8 8"></path>
  <path d="m5.228 7.303 13.532-5.06a1 1 0 0 1 1.108.285l.19.22A8 8 0 0 1 22 7.973v.616a1 1 0 0 1-.65.937l-13.536 5.06-2.586-7.283z"></path>
  <path d="M2.66 11.371a2 2 0 0 1 1.193-2.545l1.694-.624 1.944 5.473-1.64.612a2 2 0 0 1-2.585-1.205l-.606-1.711z"></path>
  <path d="M13 13v9"></path>
</svg>