<svg width="64" height="64" fill="none" stroke="currentColor" stroke-linecap="round" stroke-width="2" viewBox="0 0 24 24" xmlns="http://www.w3.org/2000/svg">
  <path d="M12 20a2 2 0 0 1-4 0"></path>
  <path d="M12 2v18"></path>
  <path d="M3.001 12.817C3.09 7.378 7.085 4 12 4c4.916 0 8.91 3.378 8.998 8.817a.181.181 0 0 1-.11.169.181.181 0 0 1-.171-.016.188.188 0 0 1-.069-.08c-.525-1.123-1.43-1.39-2.648-1.39-1.185 0-1.964.227-2.456 1.302a.336.336 0 0 1-.304.198.366.366 0 0 1-.326-.224C14.44 11.729 13.099 11.5 12 11.5c-1.099 0-2.44.229-2.914 1.276A.366.366 0 0 1 8.76 13a.333.333 0 0 1-.304-.198C7.964 11.727 7.185 11.5 6 11.5c-1.218 0-2.124.267-2.647 1.39a.188.188 0 0 1-.24.097.18.18 0 0 1-.112-.17Z"></path>
</svg>