<svg width="64" height="64" fill="none" stroke="currentColor" stroke-linecap="round" stroke-linejoin="round" stroke-width="2" viewBox="0 0 24 24" xmlns="http://www.w3.org/2000/svg">
  <path d="M11 8V3a1 1 0 0 0-1-1H3a1 1 0 0 0-1 1v5a4 4 0 0 0 4 4h1a4 4 0 0 0 4-4z"></path>
  <path d="M15 16V2h3a4 4 0 0 1 4 4v10h-4"></path>
  <path d="M15 16v5a1 1 0 0 0 1 1h1a1 1 0 0 0 1-1v-5"></path>
  <path d="M5 12v9a1 1 0 0 0 1 1h1a1 1 0 0 0 1-1v-9"></path>
  <path d="M5 6V2"></path>
  <path d="M8 6V2"></path>
</svg>